# AST/ASF file generated using VICON BodyLanguage
# -----------------------------------------------
:version 1.10
:name VICON
:units
  mass 1.0
  length 0.45
  angle deg
:documentation
   .ast/.asf automatically generated from VICON data using
   VICON BodyBuilder and BodyLanguage model FoxedUp or BRILLIANT.MOD
:root
   order TX TY TZ RX RY RZ
   axis XYZ
   position 0 0 0  
   orientation 0 0 0 
:bonedata
  begin
     id 1 
     name lhipjoint
     direction 0.646657 -0.683706 0.338203 
     length 2.4948 
     axis 0 0 0  XYZ
  end
  begin
     id 2 
     name lfemur
     direction 0.34202 -0.939693 0  
     length 6.79491  
     axis 0 0 20  XYZ
    dof rx ry rz
    limits (-160.0 20.0)
           (-70.0 70.0)
           (-60.0 70.0)
  end
  begin
     id 3 
     name ltibia
     direction 0.34202 -0.939693 0   
     length 7.56807   
     axis 0 0 20   XYZ
    dof rx
    limits (-10.0 170.0)
  end
  begin
     id 4 
     name lfoot
     direction 0.0679796 -0.186772 0.980048   
     length 2.53018   
     axis -90 7.62852e-016 20   XYZ
    dof rx rz
    limits (-45.0 90.0)
           (-70.0 20.0)
  end
  begin
     id 5 
     name ltoes
     direction 1.53625e-011 -4.21881e-011 1   
     length 1.26912   
     axis -90 7.62852e-016 20   XYZ
    dof rx
    limits (-90.0 20.0)
  end
  begin
     id 6 
     name rhipjoint
     direction -0.618868 -0.704065 0.348274   
     length 2.42265  
     axis 0 0 0  XYZ 
  end
  begin
     id 7 
     name rfemur
     direction -0.34202 -0.939693 0   
     length 6.73814   
     axis 0 0 -20   XYZ
    dof rx ry rz
    limits (-160.0 20.0)
           (-70.0 70.0)
           (-70.0 60.0)
  end
  begin
     id 8 
     name rtibia
     direction -0.34202 -0.939693 0   
     length 7.66799   
     axis 0 0 -20   XYZ
    dof rx
    limits (-10.0 170.0)
 end
 begin
     id 9 
     name rfoot
     direction -0.0727352 -0.199838 0.977125   
     length 2.57224  
     axis -90 -7.62852e-016 -20   XYZ
    dof rx rz
    limits (-45.0 90.0)
           (-20.0 70.0)
  end
  begin
     id 10 
     name rtoes
     direction -1.53501e-011 -4.21858e-011 1   
     length 1.28858   
     axis -90 -7.62852e-016 -20   XYZ
    dof rx
    limits (-90.0 20.0)
  end
  begin
     id 11 
     name lowerback
     direction -0.0172471 0.995767 -0.0902851   
     length 2.20206   
     axis 0 0 0   XYZ
    dof rx ry rz
    limits (-20.0 45.0)
           (-30.0 30.0)
           (-30.0 30.0)
  end
  begin
     id 12 
     name upperback
     direction -0.000110737 0.999714 0.0239043   
     length 2.19523   
     axis 0 0 0   XYZ
    dof rx ry rz
    limits (-20.0 45.0)
           (-30.0 30.0)
           (-30.0 30.0)
  end
  begin
     id 13 
     name thorax
     direction 0.00704869 0.997783 0.0661741   
     length 2.21977   
     axis 0 0 0   XYZ
    dof rx ry rz
    limits (-20.0 45.0)
           (-30.0 30.0)
           (-30.0 30.0)
  end
  begin
     id 14 
     name lowerneck
     direction -0.00407501 0.995527 0.0943846   
     length 1.83142   
     axis 0 0 0   XYZ
    dof rx ry rz
    limits (-20.0 45.0)
           (-30.0 30.0)
           (-30.0 30.0)
  end
  begin
     id 15 
     name upperneck
     direction 0.0640586 0.986486 -0.150807   
     length 1.84616   
     axis 0 0 0   XYZ
    dof rx ry rz
    limits (-20.0 45.0)
           (-30.0 30.0)
           (-30.0 30.0)
  end
  begin
     id 16
     name head
     direction 0.0188017 0.99791 -0.0618239  
     length 1.85932  
     axis 0 0 0   XYZ
    dof rx ry rz
    limits (-20.0 45.0)
           (-30.0 30.0)
           (-30.0 30.0)
  end
  begin
     id 17 
     name lclavicle
     direction 0.976074 0.206905 0.066852  
     length 3.81043  
     axis 0 0 0   XYZ
    dof ry rz
    limits (-20.0 10.0)
           (0.0 20.0)
  end
  begin
     id 18 
     name lhumerus
     direction 1 -4.48971e-011 1.86916e-027   
     length 5.37587   
     axis 180 -30 -90   XYZ
    dof rx ry rz
    limits (-60.0 90.0)
           (-90.0 90.0)
           (-90.0 90.0)
  end
  begin
     id 19
     name lradius
     direction 1 -4.48968e-011 1.69187e-027   
     length 3.35977   
     axis 180 -30 -90   XYZ
    dof rx
    limits (-10.0 170.0)
  end
  begin
     id 20
     name lwrist
     direction 1 -4.48968e-011 5.8978e-027   
     length 1.67988   
     axis -3.27506e-015 90 90   XYZ
    dof ry
    limits (-180.0 0.0)
 end
  begin
     id 21 
     name lhand
     direction 1 -4.49028e-011 1.18071e-026   
     length 0.561859   
     axis -7.52654e-015 90 90   XYZ
    dof rx rz
    limits (-90.0 90.0)
           (-45.0 45.0)
  end
  begin
     id 22 
     name lfingers
     direction 1 -4.48927e-011 2.35758e-026   
     length 0.452985   
     axis -1.50534e-014 90 90   XYZ
    dof rx
    limits (0.0 90.0)
  end
  begin
     id 23
     name lthumb
     direction 0.707107 -6.34898e-011 0.707107   
     length 0.650399   
     axis -90 45 5.69224e-014   XYZ
    dof rx rz
    limits (-45.0 45.0)
           (-45.0 45.0)
  end
  begin
     id 24 
     name rclavicle
     direction -0.988403 0.151789 0.00439714   
     length 3.6942  
     axis 0 0 0   XYZ 
    dof ry rz
    limits (-10.0 20.0)
           (-20.0 0.0)
  end
  begin
     id 25 
     name rhumerus
     direction -1 -4.48978e-011 1.62495e-027  
     length 5.22819   
     axis 180 30 90   XYZ
    dof rx ry rz
    limits (-90.0 60.0)
           (-90.0 90.0)
           (-90.0 90.0)
  end
  begin
     id 26 
     name rradius
     direction -1 -4.48961e-011 3.47796e-027   
     length 3.40764   
     axis 180 30 90   XYZ
    dof rx
    limits (-10.0 170.0)
  end
  begin
     id 27 
     name rwrist
     direction -1 -4.48949e-011 5.89602e-027   
     length 1.70382   
     axis -3.27506e-015 -90 -90   XYZ
    dof ry
    limits (-180.0 0.0)
  end
  begin
     id 28
     name rhand
     direction -1 -4.48977e-011 1.17973e-026   
     length 0.583255   
     axis -7.52654e-015 -90 -90   XYZ
    dof rx rz
    limits (-90.0 90.0)
           (-45.0 45.0)
  end
  begin
     id 29
     name rfingers
     direction -1 -4.49099e-011 2.36408e-026   
     length 0.470235   
     axis -1.50534e-014 -90 -90   XYZ
    dof rx
    limits (0.0 90.0)
  end
  begin
     id 30
     name rthumb
     direction -0.707107 -6.35011e-011 0.707107   
     length 0.675167   
     axis -90 -45 -5.69224e-014   XYZ
    dof rx rz
    limits (-45.0 45.0)
           (-45.0 45.0)
  end
:hierarchy
  begin
    root lhipjoint rhipjoint lowerback
    lhipjoint lfemur
    lfemur ltibia
    ltibia lfoot
    lfoot ltoes
    rhipjoint rfemur
    rfemur rtibia
    rtibia rfoot
    rfoot rtoes
    lowerback upperback
    upperback thorax
    thorax lowerneck lclavicle rclavicle
    lowerneck upperneck
    upperneck head
    lclavicle lhumerus
    lhumerus lradius
    lradius lwrist
    lwrist lhand lthumb
    lhand lfingers
    rclavicle rhumerus
    rhumerus rradius
    rradius rwrist
    rwrist rhand rthumb
    rhand rfingers
  end

#!OML:ASF G:\JayActor3\Patient Classification 1\Patient 1\Session 2\male.ASF
:FULLY-SPECIFIED
:DEGREES
979
root -8.72328 14.8226 -3.99626 197.943 -75.3754 -184.344
lowerback 23.5612 -1.23914 -3.88992
upperback 16.6962 -4.35263 -2.4734
thorax 5.49702 -3.18843 0.203771
lowerneck -3.05509 6.19414 -1.08765
upperneck -20.4572 7.82427 -0.328828
head -5.7216 3.5884 -0.201467
rclavicle -7.15625e-014 -5.725e-014
rhumerus -26.4636 3.72331 -69.3628
rradius 87.4225
rwrist 10.3284
rhand -38.2771 8.16489
rfingers 7.12502
rthumb -11.3065 -21.5104
lclavicle -7.15625e-014 -5.725e-014
lhumerus 38.2872 11.2031 48.6206
lradius 66.036
lwrist 3.25783
lhand -28.7882 19.6046
lfingers 7.12502
lthumb -2.14717 49.5735
rfemur -64.1166 -6.36146 40.1577
rtibia 61.5917
rfoot -20.9298 -16.3055
rtoes 29.2068
lfemur -23.8506 16.4499 -27.5103
ltibia 77.2511
lfoot 10.424 -0.421911
ltoes -12.2399
980
root -8.8138 14.8134 -3.99037 197.925 -75.19 -184.269
lowerback 23.7147 -1.22907 -3.85355
upperback 16.704 -4.35234 -2.4593
thorax 5.43085 -3.18929 0.207735
lowerneck -3.11067 6.21971 -1.04373
upperneck -20.4722 7.83987 -0.439969
head -5.71078 3.59857 -0.241929
rclavicle 1.27222e-014 5.96354e-014
rhumerus -26.2723 3.85096 -69.4796
rradius 87.6447
rwrist 10.3683
rhand -38.3418 8.16371
rfingers 7.12502
rthumb -11.3689 -21.5081
lclavicle 1.27222e-014 5.96354e-014
lhumerus 38.341 11.2306 48.7362
lradius 65.665
lwrist 3.28365
lhand -28.8144 19.6313
lfingers 7.12502
lthumb -2.1725 49.6
rfemur -64.0823 -6.13357 39.9092
rtibia 62.1378
rfoot -21.4325 -16.2315
rtoes 29.117
lfemur -24.4606 16.3623 -27.3943
ltibia 78.0686
lfoot 12.3291 -0.614744
ltoes -10.3139
981
root -8.902 14.8024 -3.98422 197.904 -75.0121 -184.197
lowerback 23.8696 -1.21816 -3.81295
upperback 16.7148 -4.35059 -2.44488
thorax 5.3675 -3.18934 0.209255
lowerneck -3.16862 6.24539 -0.992707
upperneck -20.4864 7.85585 -0.550115
head -5.69899 3.60827 -0.283109
rclavicle -3.97569e-014 -2.22639e-014
rhumerus -26.0753 3.97934 -69.5952
rradius 87.8598
rwrist 10.4124
rhand -38.4213 8.17423
rfingers 7.12502
rthumb -11.4456 -21.4933
lclavicle -3.97569e-014 -2.22639e-014
lhumerus 38.4021 11.2482 48.8536
lradius 65.3008
lwrist 3.33104
lhand -28.8485 19.6514
lfingers 7.12502
lthumb -2.20541 49.6197
rfemur -64.0783 -5.91038 39.6525
rtibia 62.7223
rfoot -21.8772 -16.1294
rtoes 28.9458
lfemur -25.1153 16.2889 -27.266
ltibia 78.9321
lfoot 14.1902 -0.810534
ltoes -8.22981
982
root -8.98757 14.7893 -3.97762 197.853 -74.8451 -184.1
lowerback 24.0315 -1.20872 -3.75793
upperback 16.7257 -4.34837 -2.43023
thorax 5.29985 -3.18789 0.203391
lowerneck -3.21414 6.27013 -0.936642
upperneck -20.5097 7.8709 -0.65884
head -5.69194 3.61685 -0.32518
rclavicle -1.59028e-015 -1.82882e-014
rhumerus -25.8747 4.10573 -69.712
rradius 88.0646
rwrist 10.4592
rhand -38.5029 8.19027
rfingers 7.12502
rthumb -11.5243 -21.4729
lclavicle -1.59028e-015 -1.82882e-014
lhumerus 38.4684 11.2528 48.9687
lradius 64.9444
lwrist 3.39536
lhand -28.8887 19.6672
lfingers 7.12502
lthumb -2.24422 49.6352
rfemur -64.096 -5.69801 39.4049
rtibia 63.3291
rfoot -22.2825 -16.0125
rtoes 28.7223
lfemur -25.8159 16.2315 -27.1205
ltibia 79.8433
lfoot 15.9 -1.02773
ltoes -6.26527
983
root -9.07067 14.7745 -3.97073 197.766 -74.6902 -183.971
lowerback 24.2015 -1.20164 -3.6886
upperback 16.7358 -4.34665 -2.41509
thorax 5.22649 -3.1854 0.190769
lowerneck -3.24864 6.29436 -0.868192
upperneck -20.5447 7.88461 -0.77159
head -5.68968 3.62381 -0.370996
rclavicle -6.36111e-014 5.1684e-014
rhumerus -25.6698 4.23108 -69.8318
rradius 88.2568
rwrist 10.5083
rhand -38.5872 8.20352
rfingers 7.12502
rthumb -11.6056 -21.4551
lclavicle -6.36111e-014 5.1684e-014
lhumerus 38.537 11.2449 49.08
lradius 64.5973
lwrist 3.46921
lhand -28.9415 19.6897
lfingers 7.12502
lthumb -2.29518 49.6571
rfemur -64.1234 -5.50493 39.1807
rtibia 63.9378
rfoot -22.6761 -15.8844
rtoes 28.4948
lfemur -26.5628 16.1885 -26.9563
ltibia 80.8013
lfoot 17.3368 -1.27699
ltoes -4.56367
984
root -9.15171 14.7585 -3.96357 197.654 -74.5468 -183.822
lowerback 24.3788 -1.19719 -3.60693
upperback 16.7442 -4.34588 -2.40062
thorax 5.147 -3.18213 0.171312
lowerneck -3.26356 6.31749 -0.788344
upperneck -20.5975 7.89622 -0.888199
head -5.69556 3.62875 -0.420736
rclavicle 2.06736e-014 -3.4191e-014
rhumerus -25.4651 4.35348 -69.9539
rradius 88.4397
rwrist 10.5601
rhand -38.6634 8.21766
rfingers 7.12502
rthumb -11.679 -21.4368
lclavicle 2.06736e-014 -3.4191e-014
lhumerus 38.6042 11.2214 49.1844
lradius 64.2599
lwrist 3.54632
lhand -29.0141 19.731
lfingers 7.12502
lthumb -2.36537 49.6976
rfemur -64.1489 -5.34605 38.9905
rtibia 64.5309
rfoot -23.0718 -15.7588
rtoes 28.2756
lfemur -27.3476 16.1614 -26.7779
ltibia 81.8007
lfoot 18.3929 -1.58017
ltoes -3.33714
985
root -9.23059 14.7419 -3.95612 197.521 -74.4154 -183.662
lowerback 24.5666 -1.19581 -3.51833
upperback 16.751 -4.34781 -2.38627
thorax 5.06055 -3.17954 0.149126
lowerneck -3.25901 6.34076 -0.702399
upperneck -20.6646 7.90795 -1.00628
head -5.70881 3.63316 -0.472867
rclavicle 4.45278e-014 3.18055e-015
rhumerus -25.2616 4.47751 -70.0772
rradius 88.6192
rwrist 10.6124
rhand -38.7404 8.25449
rfingers 7.12502
rthumb -11.7533 -21.3958
lclavicle 4.45278e-014 3.18055e-015
lhumerus 38.6675 11.1856 49.2818
lradius 63.932
lwrist 3.62343
lhand -29.0985 19.7827
lfingers 7.12502
lthumb -2.44687 49.7485
rfemur -64.1646 -5.22334 38.8363
rtibia 65.0966
rfoot -23.4823 -15.6516
rtoes 28.087
lfemur -28.1667 16.1491 -26.5868
ltibia 82.8411
lfoot 19.0155 -1.9355
ltoes -2.62489
986
root -9.30785 14.7252 -3.9486 197.383 -74.2875 -183.513
lowerback 24.7653 -1.19412 -3.43314
upperback 16.7584 -4.3507 -2.37389
thorax 4.97003 -3.17787 0.127462
lowerneck -3.2413 6.36438 -0.619019
upperneck -20.7396 7.92112 -1.11872
head -5.72705 3.63801 -0.523524
rclavicle 1.43125e-014 2.8625e-014
rhumerus -25.0618 4.60411 -70.2012
rradius 88.8003
rwrist 10.6653
rhand -38.8174 8.3043
rfingers 7.12502
rthumb -11.8275 -21.3417
lclavicle 1.43125e-014 2.8625e-014
lhumerus 38.7224 11.1399 49.3722
lradius 63.617
lwrist 3.69192
lhand -29.1716 19.8415
lfingers 7.12502
lthumb -2.51741 49.8064
rfemur -64.1586 -5.13364 38.7082
rtibia 65.6307
rfoot -23.9113 -15.5683
rtoes 27.941
lfemur -29.0076 16.1568 -26.389
ltibia 83.916
lfoot 19.2191 -2.34177
ltoes -2.40434
987
root -9.38364 14.7083 -3.94125 197.22 -74.161 -183.355
lowerback 24.9715 -1.19036 -3.35165
upperback 16.768 -4.35243 -2.36115
thorax 4.87926 -3.1764 0.108225
lowerneck -3.2187 6.38928 -0.536467
upperneck -20.8113 7.93711 -1.22678
head -5.74525 3.64422 -0.572949
rclavicle 4.6118e-014 5.00937e-014
rhumerus -24.8623 4.73512 -70.3221
rradius 88.9856
rwrist 10.715
rhand -38.8804 8.35715
rfingers 7.12502
rthumb -11.8884 -21.2853
lclavicle 4.6118e-014 5.00937e-014
lhumerus 38.768 11.0868 49.4534
lradius 63.3167
lwrist 3.76212
lhand -29.2326 19.8835
lfingers 7.12502
lthumb -2.57631 49.8477
rfemur -64.1282 -5.06726 38.6063
rtibia 66.1362
rfoot -24.3592 -15.5119
rtoes 27.8249
lfemur -29.8683 16.1895 -26.1751
ltibia 85.0274
lfoot 19.0697 -2.79683
ltoes -2.57752
988
root -9.45781 14.6913 -3.93427 197.032 -74.0351 -183.194
lowerback 25.1912 -1.18274 -3.27978
upperback 16.7803 -4.35251 -2.34614
thorax 4.7866 -3.17565 0.0969889
lowerneck -3.19703 6.41564 -0.46307
upperneck -20.8748 7.95678 -1.32585
head -5.76145 3.65262 -0.618113
rclavicle 3.65764e-014 -1.27222e-014
rhumerus -24.6626 4.87338 -70.4388
rradius 89.1725
rwrist 10.7609
rhand -38.9297 8.40687
rfingers 7.12502
rthumb -11.9358 -21.2329
lclavicle 3.65764e-014 -1.27222e-014
lhumerus 38.8012 11.0314 49.5298
lradius 63.0335
lwrist 3.82279
lhand -29.2648 19.9085
lfingers 7.12502
lthumb -2.60748 49.8723
rfemur -64.0687 -5.01293 38.5182
rtibia 66.6213
rfoot -24.8272 -15.4805
rtoes 27.7333
lfemur -30.7435 16.2477 -25.9424
ltibia 86.1742
lfoot 18.6754 -3.29228
ltoes -3.01778
989
root -9.53047 14.6742 -3.92779 196.835 -73.9072 -183.044
lowerback 25.421 -1.16997 -3.21985
upperback 16.7964 -4.34979 -2.33188
thorax 4.69493 -3.17511 0.0912338
lowerneck -3.18148 6.44362 -0.395515
upperneck -20.9264 7.98028 -1.41682
head -5.77341 3.66317 -0.659564
rclavicle 1.27222e-014 -9.54166e-015
rhumerus -24.4611 5.01612 -70.555
rradius 89.3575
rwrist 10.8102
rhand -38.968 8.44134
rfingers 7.12502
rthumb -11.9728 -21.1962
lclavicle 1.27222e-014 -9.54166e-015
lhumerus 38.8251 10.9764 49.604
lradius 62.7687
lwrist 3.86858
lhand -29.2713 19.9108
lfingers 7.12502
lthumb -2.61374 49.8745
rfemur -63.986 -4.96554 38.4333
rtibia 67.0962
rfoot -25.3046 -15.4621
rtoes 27.6416
lfemur -31.6359 16.3285 -25.6953
ltibia 87.3556
lfoot 18.1573 -3.78608
ltoes -3.57785
990
root -9.60111 14.6564 -3.92173 196.635 -73.7809 -182.899
lowerback 25.6516 -1.15377 -3.16744
upperback 16.8146 -4.34445 -2.3166
thorax 4.60635 -3.17426 0.0900346
lowerneck -3.17437 6.4702 -0.336006
upperneck -20.9654 8.00349 -1.49824
head -5.78072 3.67388 -0.696224
rclavicle 9.85972e-014 3.49861e-014
rhumerus -24.2569 5.16182 -70.6699
rradius 89.5386
rwrist 10.8631
rhand -38.9931 8.4583
rfingers 7.12502
rthumb -11.997 -21.1779
lclavicle 9.85972e-014 3.49861e-014
lhumerus 38.8441 10.9185 49.6683
lradius 62.5201
lwrist 3.91758
lhand -29.2646 19.8993
lfingers 7.12502
lthumb -2.60723 49.8631
rfemur -63.9001 -4.91535 38.3506
rtibia 67.571
rfoot -25.7847 -15.4551
rtoes 27.544
lfemur -32.5624 16.4252 -25.435
ltibia 88.5742
lfoot 17.5654 -4.26034
ltoes -4.31501
991
root -9.66944 14.6375 -3.91623 196.448 -73.6573 -182.769
lowerback 25.8762 -1.13338 -3.12647
upperback 16.8364 -4.33603 -2.30054
thorax 4.52607 -3.17321 0.0946699
lowerneck -3.17902 6.49609 -0.279381
upperneck -20.9954 8.02576 -1.57898
head -5.78331 3.68448 -0.731581
rclavicle -5.88403e-014 9.30312e-014
rhumerus -24.0455 5.30955 -70.7845
rradius 89.712
rwrist 10.9281
rhand -39.0035 8.43035
rfingers 7.12502
rthumb -12.007 -21.2052
lclavicle -5.88403e-014 9.30312e-014
lhumerus 38.8651 10.8633 49.73
lradius 62.2856
lwrist 3.96432
lhand -29.2529 19.8806
lfingers 7.12502
lthumb -2.59598 49.8446
rfemur -63.8222 -4.85192 38.2647
rtibia 68.0515
rfoot -26.2572 -15.4668
rtoes 27.4304
lfemur -33.5381 16.5282 -25.1655
ltibia 89.8338
lfoot 16.9134 -4.69283
ltoes -5.26208
992
root -9.73519 14.6173 -3.911 196.288 -73.5378 -182.663
lowerback 26.0893 -1.11024 -3.09356
upperback 16.8619 -4.32527 -2.28467
thorax 4.45635 -3.17186 0.102009
lowerneck -3.19991 6.5192 -0.22409
upperneck -21.0135 8.04411 -1.65923
head -5.7795 3.6934 -0.765591
rclavicle -1.43125e-014 4.21423e-014
rhumerus -23.8291 5.45526 -70.8996
rradius 89.8793
rwrist 11.0135
rhand -38.9999 8.35682
rfingers 7.12502
rthumb -12.0035 -21.279
lclavicle -1.43125e-014 4.21423e-014
lhumerus 38.8934 10.8116 49.7901
lradius 62.0638
lwrist 4.00761
lhand -29.2329 19.8711
lfingers 7.12502
lthumb -2.57661 49.8353
rfemur -63.7638 -4.77321 38.1735
rtibia 68.5404
rfoot -26.7146 -15.4995
rtoes 27.298
lfemur -34.5725 16.6305 -24.8931
ltibia 91.1346
lfoot 16.1721 -5.07876
ltoes -6.45211
993
root -9.79812 14.5958 -3.90566 196.15 -73.4251 -182.573
lowerback 26.2915 -1.08722 -3.06653
upperback 16.8904 -4.31526 -2.26662
thorax 4.39624 -3.17164 0.114177
lowerneck -3.23918 6.53997 -0.176852
upperneck -21.0206 8.0591 -1.73717
head -5.76962 3.70122 -0.796567
rclavicle 3.65764e-014 1.59028e-014
rhumerus -23.6022 5.61062 -71.0053
rradius 90.0409
rwrist 11.1103
rhand -39.0082 8.27843
rfingers 7.12502
rthumb -12.0116 -21.3569
lclavicle 3.65764e-014 1.59028e-014
lhumerus 38.9255 10.7615 49.8386
lradius 61.853
lwrist 4.07044
lhand -29.2273 19.8745
lfingers 7.12502
lthumb -2.57121 49.8387
rfemur -63.7294 -4.6781 38.0792
rtibia 69.0357
rfoot -27.1511 -15.5619
rtoes 27.1285
lfemur -35.6726 16.7274 -24.6191
ltibia 92.4749
lfoot 15.306 -5.4066
ltoes -7.8655
